<?xml version="1.0" standalone="no"?>
<!DOCTYPE svg PUBLIC "-//W3C//DTD SVG 20010904//EN"
 "http://www.w3.org/TR/2001/REC-SVG-20010904/DTD/svg10.dtd">
<svg version="1.0" xmlns="http://www.w3.org/2000/svg"
 width="841.000000pt" height="841.000000pt" viewBox="0 0 841.000000 841.000000"
 preserveAspectRatio="xMidYMid meet">

<g transform="translate(0.000000,841.000000) scale(0.100000,-0.100000)"
fill="#000000" stroke="none">
<path d="M4740 7020 c0 -5 -10 -10 -23 -10 -33 0 -186 -79 -252 -130 -215
-166 -432 -495 -529 -802 -64 -200 -80 -311 -81 -533 0 -290 46 -520 146 -731
88 -184 234 -326 383 -371 45 -14 56 -10 38 15 -27 40 -92 184 -112 253 -31
101 -31 288 -1 402 20 77 25 90 74 198 84 185 282 428 487 596 189 156 286
285 341 453 20 64 24 94 24 205 0 111 -4 141 -24 203 -13 39 -28 72 -33 72 -4
0 -8 6 -8 14 0 29 -81 105 -151 140 -68 34 -75 36 -175 36 -63 0 -104 -4 -104
-10z"/>
<path d="M2760 6134 c-186 -32 -252 -60 -332 -138 -69 -68 -101 -140 -106
-237 -4 -67 0 -85 23 -137 34 -75 96 -138 150 -150 60 -13 137 0 177 30 18 14
46 52 62 84 57 119 64 130 104 181 64 82 153 115 255 93 87 -18 146 -62 185
-140 32 -64 33 -67 29 -170 -5 -101 -37 -234 -63 -260 -7 -7 -26 5 -55 32 -81
78 -165 108 -300 108 -110 0 -153 -13 -255 -77 -152 -95 -224 -219 -224 -387
0 -180 89 -342 223 -405 108 -50 135 -56 262 -56 117 0 122 1 195 36 78 37
135 86 152 129 l10 25 24 -30 c78 -96 100 -118 136 -136 71 -36 197 -21 234
29 23 29 17 126 -10 180 -25 49 -54 133 -77 217 -17 63 -18 291 -1 322 17 32
18 429 1 480 -21 59 -76 139 -127 181 -89 74 -196 135 -287 162 -22 7 -51 17
-65 22 -26 11 -276 20 -320 12z m158 -983 c21 -7 61 -39 111 -90 64 -67 83
-81 109 -81 17 0 33 -4 36 -9 10 -15 -70 -96 -149 -151 -75 -51 -80 -53 -146
-53 -76 -1 -110 12 -152 57 -89 97 -54 260 68 317 45 21 75 23 123 10z"/>
<path d="M5587 5980 c-207 -35 -401 -141 -567 -309 -220 -221 -323 -455 -374
-852 -15 -109 -14 -157 0 -268 8 -62 51 -151 73 -151 4 0 14 30 21 66 8 36 17
67 22 70 4 3 8 12 8 20 0 13 41 101 83 179 62 112 228 262 368 332 179 88 301
108 514 82 260 -32 370 -23 472 37 121 71 198 212 197 364 0 73 -4 92 -28 139
-35 68 -85 123 -158 172 -31 22 -59 39 -63 39 -3 0 -24 8 -48 18 -143 63 -360
88 -520 62z"/>
<path d="M5764 4376 c-15 -11 -18 -24 -15 -58 16 -185 15 -187 -167 -455 -42
-63 -61 -101 -83 -175 -67 -225 -9 -499 140 -660 63 -69 115 -101 192 -121
125 -33 262 34 363 176 112 159 156 296 155 482 0 181 -45 317 -156 474 -62
87 -223 248 -298 298 -72 48 -105 58 -131 39z m197 -577 c31 -31 85 -155 99
-227 24 -118 -2 -230 -63 -276 -60 -45 -205 -9 -254 63 -46 68 -37 173 27 304
34 69 49 89 98 130 40 33 65 34 93 6z"/>
<path d="M3600 4150 c-97 -18 -191 -52 -276 -100 -66 -38 -79 -55 -94 -117
-25 -111 33 -233 112 -233 18 0 60 12 93 26 33 14 87 37 120 51 84 36 159 52
238 53 117 0 147 -31 132 -143 -12 -86 -13 -87 -118 -87 -176 -1 -344 -35
-447 -93 -211 -117 -322 -284 -321 -484 1 -209 61 -319 215 -391 108 -51 187
-74 311 -92 160 -22 200 -32 223 -53 12 -11 22 -26 22 -34 0 -7 20 -34 45 -59
41 -43 47 -46 82 -41 40 7 86 50 96 90 3 12 12 50 21 83 8 34 22 147 31 252 8
105 19 213 24 239 5 26 15 86 21 133 7 47 19 114 27 150 44 194 56 378 34 496
-34 178 -122 286 -272 334 -76 24 -243 34 -319 20z m268 -865 c20 -58 9 -198
-26 -338 -16 -65 -35 -124 -41 -130 -19 -19 -224 -13 -296 8 -141 41 -195 96
-195 196 0 88 73 165 220 231 54 25 186 63 245 71 66 10 79 4 93 -38z"/>
<path d="M1165 4119 c-139 -30 -251 -94 -350 -200 -117 -128 -147 -259 -86
-385 65 -133 211 -245 411 -314 171 -58 291 -134 324 -204 31 -66 10 -133 -64
-200 -64 -58 -121 -79 -215 -80 -119 -1 -155 21 -243 149 l-33 48 -50 -6 c-88
-11 -143 -75 -143 -167 1 -86 44 -155 149 -238 99 -78 153 -97 290 -97 140 0
244 35 395 131 129 83 223 216 252 358 27 139 -35 269 -182 377 -45 33 -223
131 -277 152 -100 39 -199 93 -232 127 -48 47 -69 116 -48 156 26 50 51 65
116 71 92 9 198 -30 307 -110 103 -75 168 -102 226 -90 56 11 108 89 108 162
0 128 -283 328 -505 356 -96 12 -110 12 -150 4z"/>
<path d="M4712 4114 c-170 -36 -342 -167 -415 -314 -15 -32 -23 -68 -25 -126
-4 -72 -1 -88 24 -140 25 -53 106 -146 171 -196 38 -29 154 -86 243 -118 199
-73 318 -155 333 -229 28 -137 -159 -279 -338 -256 -72 9 -122 44 -175 123
-41 61 -49 67 -83 70 -45 4 -105 -27 -138 -72 -36 -47 -33 -134 6 -205 29 -53
138 -161 163 -161 6 0 12 -3 12 -8 0 -11 46 -29 120 -48 150 -38 343 10 518
130 125 85 201 193 237 334 52 204 -81 371 -420 527 -205 95 -242 115 -272
146 -42 44 -61 115 -44 157 22 53 55 67 151 66 77 -1 92 -4 157 -37 39 -20
100 -57 135 -82 78 -58 120 -76 181 -77 39 -1 52 3 77 27 39 37 64 104 56 148
-20 109 -205 256 -396 315 -114 36 -195 43 -278 26z"/>
<path d="M2271 4069 c-115 -22 -245 -123 -299 -231 -34 -69 -71 -190 -83 -275
-42 -298 105 -753 299 -924 85 -75 234 -129 352 -129 64 0 206 25 271 48 99
35 189 117 189 173 0 36 -53 112 -94 134 l-34 18 -62 -32 c-143 -75 -258 -90
-346 -46 -55 27 -96 75 -96 110 0 34 31 73 81 102 25 15 83 51 129 80 45 29
85 53 87 53 3 0 29 17 57 37 235 166 271 219 249 365 -18 116 -85 253 -168
343 -133 145 -340 212 -532 174z m246 -324 c30 -10 66 -32 85 -52 31 -32 33
-38 33 -106 0 -60 -4 -79 -27 -119 -47 -79 -136 -134 -255 -157 -70 -13 -90
-7 -116 33 -58 88 -62 207 -12 321 43 96 152 126 292 80z"/>
<path d="M6568 3918 c-20 -12 -42 -33 -48 -47 -30 -75 -38 -240 -19 -446 8
-90 8 -165 -2 -301 -18 -262 2 -358 81 -399 79 -41 163 2 208 105 23 52 81
200 110 280 59 160 74 199 93 237 42 84 94 105 117 45 15 -37 31 -244 41 -512
13 -317 19 -329 163 -330 76 0 90 3 112 23 24 21 26 29 32 152 5 116 -7 481
-22 625 -7 77 -34 239 -45 275 -47 159 -73 209 -124 244 -71 48 -211 15 -300
-73 -51 -50 -118 -147 -146 -213 -9 -20 -21 -33 -32 -33 -17 0 -18 6 -14 53 2
28 12 81 21 117 18 68 12 115 -20 164 -39 58 -137 74 -206 34z"/>
<path d="M5766 2353 c-3 -3 -6 -114 -6 -245 l0 -238 114 0 c66 0 117 4 121 10
3 6 15 10 27 10 11 0 35 15 54 34 31 31 34 40 34 90 0 48 -4 60 -31 90 l-30
35 20 23 c15 16 21 35 21 69 0 57 -31 100 -82 115 -37 12 -232 17 -242 7z
m223 -100 c21 -25 21 -55 0 -77 -14 -15 -117 -20 -134 -6 -19 15 -20 96 -2
103 6 3 35 6 64 6 44 1 54 -3 72 -26z m13 -190 c26 -24 23 -69 -7 -89 -29 -19
-94 -29 -129 -20 -24 6 -26 10 -26 66 l0 60 72 0 c52 0 76 -4 90 -17z"/>
<path d="M7387 2353 c-4 -3 -7 -42 -7 -85 0 -45 -4 -78 -10 -78 -5 0 -10 4
-10 8 0 13 -47 32 -78 32 -37 0 -88 -33 -106 -69 -9 -16 -19 -54 -22 -85 -14
-121 43 -206 138 -206 36 0 50 5 62 21 15 22 36 18 36 -7 0 -10 12 -14 40 -14
l40 0 -2 242 -3 243 -36 2 c-19 2 -39 0 -42 -4z m-25 -220 c25 -22 25 -128 0
-160 -20 -25 -37 -30 -74 -20 -49 13 -64 131 -22 178 21 23 71 25 96 2z"/>
<path d="M6298 2208 c-19 -19 -22 -20 -33 -5 -8 11 -26 17 -49 17 l-36 0 0
-176 0 -175 43 3 42 3 3 115 c3 135 13 156 73 146 32 -5 37 -3 43 17 10 38 7
65 -10 71 -29 11 -54 6 -76 -16z"/>
<path d="M6473 2217 c-34 -11 -42 -26 -35 -65 3 -17 9 -21 21 -16 75 31 145
22 139 -19 -3 -19 -10 -23 -67 -28 -57 -6 -68 -10 -94 -39 -26 -29 -29 -38
-25 -82 7 -67 37 -98 95 -98 24 0 55 8 70 17 24 16 26 16 38 -1 9 -11 23 -16
42 -14 l28 3 3 131 c1 72 -2 143 -7 158 -22 57 -119 82 -208 53z m130 -193
c10 -10 -14 -64 -33 -74 -30 -16 -58 -12 -70 10 -12 22 0 54 22 63 18 8 74 8
81 1z"/>
<path d="M6908 2210 c-31 -17 -38 -18 -48 -5 -17 20 -76 20 -84 -1 -8 -20 -8
-282 0 -311 5 -19 13 -23 44 -23 35 0 39 3 45 30 4 17 6 65 5 108 -3 102 -3
98 22 122 24 22 68 26 86 8 8 -8 12 -50 12 -124 0 -62 3 -119 6 -128 4 -11 19
-16 44 -16 47 0 50 11 46 166 -2 85 -7 118 -21 142 -32 54 -91 66 -157 32z"/>
</g>
</svg>
